<svg width="19" height="19" viewBox="0 0 19 19" fill="none" xmlns="http://www.w3.org/2000/svg">
<path d="M2.43626 10.0301L9.16976 16.7801C9.46151 17.0726 9.93851 17.0734 10.2303 16.7816L16.996 10.0316C17.0659 9.96197 17.1213 9.87921 17.1591 9.78809C17.1969 9.69697 17.2163 9.59929 17.2163 9.50064C17.2163 9.40199 17.1969 9.30431 17.1591 9.21319C17.1213 9.12207 17.0659 9.03931 16.996 8.96964L10.2303 2.21964C10.1606 2.15003 10.0778 2.09484 9.9868 2.05724C9.89576 2.01963 9.7982 2.00035 9.6997 2.00049C9.6012 2.00063 9.50369 2.02019 9.41276 2.05805C9.32183 2.09591 9.23925 2.15133 9.16976 2.22114L2.43626 8.97114C2.36668 9.04065 2.31149 9.1232 2.27384 9.21405C2.23618 9.30491 2.2168 9.40229 2.2168 9.50064C2.2168 9.59899 2.23618 9.69638 2.27384 9.78723C2.31149 9.87808 2.36668 9.96063 2.43626 10.0301ZM7.46651 8.00064H11.2165V6.50064L13.4665 8.75064L11.2165 11.0006V9.50064H8.96651V12.5006H7.46651V8.00064Z" fill="#008DFF"/>
</svg>
