<svg width="248" height="203" viewBox="0 0 248 203" fill="none" xmlns="http://www.w3.org/2000/svg">
<path d="M230.854 57.4877L198.908 44.7448V0H163.069V30.409L106.921 8.01258C104.576 7.09548 102.054 8.39875 101.169 10.9087C100.328 13.4669 101.523 16.2664 103.824 17.1835L110.505 19.8383V55.75L20.464 91.4687C18.1189 92.3858 16.9242 95.1853 17.7649 97.7436C18.4286 99.7226 20.1542 100.978 21.9683 100.978C22.455 100.978 22.986 100.881 23.4727 100.688L30.4193 97.9367V192.977H21.9683V202.727H30.4193H34.8881H52.0114H95.6822H110.505H119.442H129.884H167.493H167.538H205.147H220.058H224.527H231.296V192.929H224.527V65.3555L227.801 66.6587C228.288 66.8518 228.819 66.9483 229.35 66.9483C231.164 66.9483 232.889 65.7417 233.553 63.7144C234.394 61.2044 233.199 58.4048 230.854 57.4877ZM172.007 9.79848H189.971V41.173L172.007 34.0292V9.79848ZM60.9934 192.929V141.04H86.7445V192.929H60.9934ZM95.7264 192.929V141.04C95.7264 135.634 91.7001 131.242 86.7887 131.242H61.0375C56.1262 131.242 52.0999 135.634 52.0999 141.04V192.929H39.4897V94.6061L110.593 66.176V192.929H95.7264ZM162.892 159.382L163.025 192.929H138.866V159.382H162.892ZM172.007 192.929L171.874 159.382H196.209V192.929H172.007ZM215.589 192.929H205.147V159.382C205.147 153.976 201.121 149.584 196.209 149.584H167.361H138.866C133.955 149.584 129.929 153.976 129.929 159.382V192.929H119.487V52.1782V23.5067L215.589 61.7835V192.929Z" fill="#002F6C"/>
<path d="M143.074 118.74H191.966C196.878 118.74 200.904 114.348 200.904 108.942V83.1664C200.904 77.7603 196.878 73.3679 191.966 73.3679H143.074C138.163 73.3679 134.137 77.7603 134.137 83.1664V108.942C134.137 114.348 138.163 118.74 143.074 118.74ZM143.074 108.99V100.977H191.966V108.99H143.074ZM192.01 83.2146V91.2271H143.119V83.2146H192.01Z" fill="#002F6C"/>
<path d="M14.447 192.929H0.111328V202.727H14.447V192.929Z" fill="#002F6C"/>
<path d="M247.89 192.929H239.262V202.727H247.89V192.929Z" fill="#002F6C"/>
</svg>
